# xmcd CD database file
#
# Track frame offsets:
#	150
#	21055
#	43228
#	58136
#	74540
#	89110
#	109610
#	127616
#	142999
#	159023
#	178920
#	201715
#	219721
#	236779
#
# Disc length: 3491 seconds
#
# Revision: 0
# Processed by: cddbd v1.5.2PL0 Copyright (c) Steve Scherf et al.
# Submitted via: CDex 1.77
#
DISCID=d30da10e
DTITLE=B.G. Miller - Approaching The Blues
DYEAR=2017
DGENRE=Blues
TTITLE0=Addicted
TTITLE1=Simple Things
TTITLE2=No Compromise
TTITLE3=Shyla Blue
TTITLE4=Backstage Pass
TTITLE5=Taking It Easy
TTITLE6=Subway Song
TTITLE7=Second Chance
TTITLE8=Missing Hat Blues
TTITLE9=ITs Late Once Again
TTITLE10=The Great Blasket Island Blues
TTITLE11=Simple Measures
TTITLE12=Days Without Travel
TTITLE13=Some Woman
EXTD=YEAR: 2017
EXTT0=
EXTT1=
EXTT2=
EXTT3=
EXTT4=
EXTT5=
EXTT6=
EXTT7=
EXTT8=
EXTT9=
EXTT10=
EXTT11=
EXTT12=
EXTT13=
PLAYORDER=
